<?xml version="1.0" standalone="no"?>
<!DOCTYPE svg PUBLIC "-//W3C//DTD SVG 20010904//EN"
 "http://www.w3.org/TR/2001/REC-SVG-20010904/DTD/svg10.dtd">
<svg version="1.0" xmlns="http://www.w3.org/2000/svg"
 width="16.000000pt" height="16.000000pt" viewBox="0 0 16.000000 16.000000"
 preserveAspectRatio="xMidYMid meet">
<metadata>
Created by potrace 1.11, written by Peter Selinger 2001-2013
</metadata>
<g transform="translate(0.000000,16.000000) scale(0.001563,-0.001563)"
fill="#000000" stroke="none">
<path d="M0 5120 l0 -5120 5120 0 5120 0 0 5120 0 5120 -5120 0 -5120 0 0
-5120z m5560 2408 c96 -47 170 -132 204 -233 15 -47 16 -216 14 -2175 l-3
-2125 -29 -56 c-39 -78 -108 -146 -186 -183 -60 -29 -73 -31 -170 -31 -95 0
-110 3 -161 28 -97 49 -170 133 -203 232 -15 47 -16 216 -14 2175 l3 2125 27
55 c30 61 90 128 147 164 70 45 119 56 221 53 80 -2 105 -7 150 -29z m952 -1
c87 -43 142 -98 185 -185 l38 -76 0 -2126 0 -2126 -38 -76 c-43 -88 -102 -146
-187 -187 -48 -23 -68 -26 -160 -26 -94 0 -111 3 -161 28 -88 43 -143 98 -186
185 l-38 76 0 2125 0 2126 31 65 c51 108 122 175 227 212 79 28 215 21 289
-15z m-3823 -23 c136 -43 233 -154 261 -299 10 -55 -9 -250 -205 -2133 -154
-1480 -220 -2085 -232 -2115 -67 -170 -225 -270 -401 -254 -179 17 -330 166
-348 342 -4 43 56 652 205 2090 116 1117 216 2054 221 2082 47 223 280 357
499 287z m812 -28 c114 -26 211 -105 259 -209 16 -34 281 -952 589 -2041 616
-2171 585 -2048 542 -2171 -57 -161 -196 -258 -371 -259 -75 0 -93 4 -152 31
-87 41 -151 101 -188 177 -28 58 -1139 3957 -1155 4052 -16 100 40 249 121
323 100 93 227 128 355 97z m3780 -206 c71 -22 144 -71 182 -122 32 -41 2063
-3557 2089 -3616 85 -190 -5 -419 -199 -510 -50 -23 -71 -27 -153 -27 -91 0
-100 2 -172 38 -50 24 -90 53 -115 81 -36 42 -2089 3588 -2113 3651 -54 138
-12 314 98 417 109 102 242 132 383 88z"/>
</g>
</svg>
